<?xml version="1.0" encoding="UTF-8"?>
<svg width="92px" height="92px" viewBox="0 0 92 92" version="1.1" xmlns="http://www.w3.org/2000/svg" xmlns:xlink="http://www.w3.org/1999/xlink">
    <title>数据量</title>
    <defs>
        <path d="M51,2.88675135 L80.8371686,20.1132487 C83.9311793,21.8995766 85.8371686,25.2008468 85.8371686,28.7735027 L85.8371686,63.2264973 C85.8371686,66.7991532 83.9311793,70.1004234 80.8371686,71.8867513 L51,89.1132487 C47.9059892,90.8995766 44.0940108,90.8995766 41,89.1132487 L11.1628314,71.8867513 C8.06882066,70.1004234 6.16283143,66.7991532 6.16283143,63.2264973 L6.16283143,28.7735027 C6.16283143,25.2008468 8.06882066,21.8995766 11.1628314,20.1132487 L41,2.88675135 C44.0940108,1.1004234 47.9059892,1.1004234 51,2.88675135 Z" id="path-1"></path>
        <filter x="0.2%" y="-4.8%" width="99.6%" height="109.7%" filterUnits="objectBoundingBox" id="filter-2">
            <feMorphology radius="6" operator="erode" in="SourceAlpha" result="shadowSpreadInner1"></feMorphology>
            <feGaussianBlur stdDeviation="3" in="shadowSpreadInner1" result="shadowBlurInner1"></feGaussianBlur>
            <feOffset dx="0" dy="0" in="shadowBlurInner1" result="shadowOffsetInner1"></feOffset>
            <feComposite in="shadowOffsetInner1" in2="SourceAlpha" operator="arithmetic" k2="-1" k3="1" result="shadowInnerInner1"></feComposite>
            <feColorMatrix values="0 0 0 0 0   0 0 0 0 0.803921569   0 0 0 0 0.615686275  0 0 0 0.500355114 0" type="matrix" in="shadowInnerInner1"></feColorMatrix>
        </filter>
        <filter id="filter-3">
            <feColorMatrix in="SourceGraphic" type="matrix" values="0 0 0 0 0.000000 0 0 0 0 0.803922 0 0 0 0 0.615686 0 0 0 1.000000 0"></feColorMatrix>
        </filter>
    </defs>
    <g id="页面-1" stroke="none" stroke-width="1" fill="none" fill-rule="evenodd">
        <g id="数据服务情况" transform="translate(-1523.000000, -163.000000)">
            <g id="数据量" transform="translate(1523.000000, 163.000000)">
                <g id="多边形">
                    <use fill="black" fill-opacity="1" filter="url(#filter-2)" xlink:href="#path-1"></use>
                    <path stroke="#00CD9D" stroke-width="1" d="M46,2.04700538 C47.6401724,2.04700538 49.2803449,2.47125827 50.75,3.31976405 L50.75,3.31976405 L80.5871686,20.5462614 C82.0568237,21.3947671 83.2443237,22.6030717 84.0644099,24.0235027 C84.8844961,25.4439337 85.3371686,27.0764911 85.3371686,28.7735027 L85.3371686,28.7735027 L85.3371686,63.2264973 C85.3371686,66.6205204 83.5264788,69.7567271 80.5871686,71.4537386 L80.5871686,71.4537386 L50.75,88.680236 C49.2803449,89.5287417 47.6401724,89.9529946 46,89.9529946 C44.3598276,89.9529946 42.7196551,89.5287417 41.25,88.680236 L41.25,88.680236 L11.4128314,71.4537386 C8.4735212,69.7567271 6.66283143,66.6205204 6.66283143,63.2264973 L6.66283143,63.2264973 L6.66283143,28.7735027 C6.66283143,25.3794796 8.4735212,22.2432729 11.4128314,20.5462614 L11.4128314,20.5462614 L41.25,3.31976405 C42.7196551,2.47125827 44.3598276,2.04700538 46,2.04700538 Z" stroke-linejoin="square"></path>
                </g>
                <g filter="url(#filter-3)" id="编组">
                    <g transform="translate(28.000000, 28.000000)">
                        <path d="M1.21424514,34.9999989 C0.892393381,35.0003217 0.583604919,34.8751919 0.355865918,34.6521588 C0.128126917,34.4291257 0.000109734439,34.1264759 0,33.810844 L0,25.356373 C0,24.6989481 0.54345062,24.166 1.21383093,24.166 C1.88421125,24.166 2.42766187,24.6989481 2.42766187,25.356373 L2.42766187,33.810844 C2.42755203,34.1263351 2.29964857,34.4288617 2.07208879,34.6518714 C1.844529,34.8748811 1.53595342,34.9999989 1.21424514,34.9999989 L1.21424514,34.9999989 Z M12.3412703,34.9999986 C12.019562,35.0002139 11.7109428,34.8750922 11.4833053,34.6521586 C11.2556678,34.4292251 11.127659,34.1267413 11.1274394,33.8112502 L11.1274394,20.8438826 C11.1274394,20.1864578 11.67089,19.6535097 12.3412703,19.6535097 C13.0116506,19.6535097 13.5551012,20.1864578 13.5551012,20.8438826 L13.5551012,33.8118595 C13.554301,34.4685977 13.0109508,35.0004473 12.3412703,34.9999986 Z M23.1313388,34.9999988 C22.8095947,35.0002678 22.5009222,34.8751699 22.2732399,34.6522305 C22.0455576,34.4292911 21.9175204,34.1267765 21.9173008,33.8112502 L21.9173008,17.2102088 C21.9259772,16.5587919 22.4669247,16.0351825 23.1312353,16.0351825 C23.7955459,16.0351825 24.3364934,16.5587919 24.3451698,17.2102088 L24.3451698,33.810844 C24.34506,34.1264407 24.2170712,34.4290597 23.989377,34.6520869 C23.7616829,34.8751141 23.4529476,35.0002678 23.1311317,34.9999988 L23.1313388,34.9999988 Z M33.7861691,35 C33.4644608,35 33.1558415,34.8750922 32.928204,34.6521586 C32.7005666,34.4292251 32.5725578,34.1267413 32.5723381,33.8112502 L32.5723381,12.1903729 C32.5723381,11.5329481 33.1157888,11 33.7861691,11 C34.4565494,11 35,11.5329481 35,12.1903729 L35,33.810844 C34.9998902,34.1264407 34.8719015,34.4290597 34.6442073,34.6520869 C34.4165131,34.8751141 34.1077779,35.0002678 33.785962,35 L33.7861691,35 Z" id="形状" fill="#2966C1" fill-rule="nonzero"></path>
                        <path d="M33.3422528,0 L26.9790397,0 C26.5489139,-0.00556053308 26.1490257,0.221643673 25.9323182,0.594818531 C25.7156107,0.96799339 25.7156107,1.42940507 25.9323182,1.80257992 C26.1490257,2.17575478 26.5489139,2.40295899 26.9790397,2.39729497 L30.8930796,2.39729497 L19.4597742,12.0618941 L15.2574394,7.53395726 C14.5395489,6.75905872 13.3409109,6.690522 12.54008,7.37858183 L1.41907705,16.8927511 C1.17736928,17.0987012 1.02772341,17.3931827 1.00347972,17.7105866 C0.979236022,18.0279905 1.08240861,18.3419478 1.2900112,18.5825104 C1.725234,19.0845457 2.48153366,19.1417698 2.98674491,18.7108909 L13.782108,9.47491374 L17.982596,13.9999656 C18.6978218,14.7705975 19.8891831,14.842475 20.6911321,14.1633777 L32.5937119,4.1039519 L32.5937119,7.90240722 C32.6023097,8.56356866 33.1384493,9.09501151 33.796856,9.09501151 C34.4552627,9.09501151 34.9914022,8.56356866 35,7.90240722 L35,1.65194626 C34.9954775,0.736474758 34.2538397,-0.00252150286 33.3422528,0 Z" id="路径" fill="#FD9A16" fill-rule="nonzero"></path>
                    </g>
                </g>
            </g>
        </g>
    </g>
</svg>