<?xml version="1.0" encoding="UTF-8"?>
<svg width="92px" height="92px" viewBox="0 0 92 92" version="1.1" xmlns="http://www.w3.org/2000/svg" xmlns:xlink="http://www.w3.org/1999/xlink">
    <title>机构</title>
    <defs>
        <path d="M51,2.88675135 L80.8371686,20.1132487 C83.9311793,21.8995766 85.8371686,25.2008468 85.8371686,28.7735027 L85.8371686,63.2264973 C85.8371686,66.7991532 83.9311793,70.1004234 80.8371686,71.8867513 L51,89.1132487 C47.9059892,90.8995766 44.0940108,90.8995766 41,89.1132487 L11.1628314,71.8867513 C8.06882066,70.1004234 6.16283143,66.7991532 6.16283143,63.2264973 L6.16283143,28.7735027 C6.16283143,25.2008468 8.06882066,21.8995766 11.1628314,20.1132487 L41,2.88675135 C44.0940108,1.1004234 47.9059892,1.1004234 51,2.88675135 Z" id="path-1"></path>
        <filter x="0.2%" y="-4.8%" width="99.6%" height="109.7%" filterUnits="objectBoundingBox" id="filter-2">
            <feMorphology radius="6" operator="erode" in="SourceAlpha" result="shadowSpreadInner1"></feMorphology>
            <feGaussianBlur stdDeviation="3" in="shadowSpreadInner1" result="shadowBlurInner1"></feGaussianBlur>
            <feOffset dx="0" dy="0" in="shadowBlurInner1" result="shadowOffsetInner1"></feOffset>
            <feComposite in="shadowOffsetInner1" in2="SourceAlpha" operator="arithmetic" k2="-1" k3="1" result="shadowInnerInner1"></feComposite>
            <feColorMatrix values="0 0 0 0 0   0 0 0 0 0.768627451   0 0 0 0 1  0 0 0 0.5 0" type="matrix" in="shadowInnerInner1"></feColorMatrix>
        </filter>
        <filter id="filter-3">
            <feColorMatrix in="SourceGraphic" type="matrix" values="0 0 0 0 0.000000 0 0 0 0 0.768627 0 0 0 0 1.000000 0 0 0 1.000000 0"></feColorMatrix>
        </filter>
    </defs>
    <g id="页面-1" stroke="none" stroke-width="1" fill="none" fill-rule="evenodd">
        <g id="数据服务情况" transform="translate(-678.000000, -163.000000)">
            <g id="机构" transform="translate(678.000000, 163.000000)">
                <g id="多边形">
                    <use fill="black" fill-opacity="1" filter="url(#filter-2)" xlink:href="#path-1"></use>
                    <path stroke="#00C4FF" stroke-width="1" d="M46,2.04700538 C47.6401724,2.04700538 49.2803449,2.47125827 50.75,3.31976405 L50.75,3.31976405 L80.5871686,20.5462614 C82.0568237,21.3947671 83.2443237,22.6030717 84.0644099,24.0235027 C84.8844961,25.4439337 85.3371686,27.0764911 85.3371686,28.7735027 L85.3371686,28.7735027 L85.3371686,63.2264973 C85.3371686,66.6205204 83.5264788,69.7567271 80.5871686,71.4537386 L80.5871686,71.4537386 L50.75,88.680236 C49.2803449,89.5287417 47.6401724,89.9529946 46,89.9529946 C44.3598276,89.9529946 42.7196551,89.5287417 41.25,88.680236 L41.25,88.680236 L11.4128314,71.4537386 C8.4735212,69.7567271 6.66283143,66.6205204 6.66283143,63.2264973 L6.66283143,63.2264973 L6.66283143,28.7735027 C6.66283143,25.3794796 8.4735212,22.2432729 11.4128314,20.5462614 L11.4128314,20.5462614 L41.25,3.31976405 C42.7196551,2.47125827 44.3598276,2.04700538 46,2.04700538 Z" stroke-linejoin="square"></path>
                </g>
                <g filter="url(#filter-3)" id="编组">
                    <g transform="translate(29.000000, 27.000000)">
                        <path d="M31.6931152,14.2478027 L25.8524902,14.2478027 L25.8524902,3.31030273 C25.8524902,1.49467773 24.3868652,0.0290527344 22.5712402,0.0290527344 L3.32124023,0.0290527344 C1.50561523,0.0290527344 0.0399902344,1.49467773 0.0399902344,3.31030273 L0.0399902344,34.1540527 C0.0399902344,35.9696777 1.50561523,37.4353027 3.32124023,37.4353027 L22.5712402,37.4353027 C22.7462402,37.4353027 22.9212402,37.4134277 23.0743652,37.3915527 C23.2493652,37.4134277 23.4243652,37.4353027 23.5774902,37.4353027 L31.6712402,37.4353027 C33.4868652,37.4353027 34.952732,35.9696777 34.952732,34.1540527 L34.952732,17.5290527 C34.9743652,15.7134277 33.5087402,14.2478027 31.6931152,14.2478027 Z M2.22749023,34.1540527 L2.22749023,3.31030273 C2.22749023,2.69780273 2.70874023,2.21655273 3.32124023,2.21655273 L22.5712402,2.21655273 C23.1837402,2.21655273 23.6649902,2.69780273 23.6649902,3.31030273 L23.6649902,34.1540527 C23.6649902,34.2196777 23.6649902,34.2853027 23.6431152,34.3290527 C23.5774902,34.6790527 23.3368652,35.0071777 22.9868652,35.1384277 C22.9212402,35.1603027 22.8774902,35.1821777 22.8118652,35.2040527 C22.7243652,35.2259277 22.6368652,35.2259277 22.5493652,35.2259277 L3.29936523,35.2259277 C2.73061523,35.2478027 2.22749023,34.7665527 2.22749023,34.1540527 L2.22749023,34.1540527 Z M32.7868652,34.1540527 C32.7868652,34.7665527 32.3056152,35.2478027 31.6931152,35.2478027 L25.6774902,35.2478027 C25.6993652,35.2040527 25.6993652,35.1821777 25.7212402,35.1384277 C25.7431152,35.0946777 25.7431152,35.0509277 25.7649902,34.9853027 C25.7868652,34.9415527 25.7868652,34.8978027 25.7868652,34.8540527 C25.7868652,34.8103027 25.8087402,34.7665527 25.8087402,34.7228027 C25.8087402,34.6571777 25.8306152,34.6134277 25.8306152,34.5478027 C25.8306152,34.5040527 25.8306152,34.4821777 25.8524902,34.4384277 C25.8524902,34.3509277 25.8743652,34.2415527 25.8743652,34.1540527 L25.8743652,16.4353027 L31.6931152,16.4353027 C32.3056152,16.4353027 32.7868652,16.9165527 32.7868652,17.5290527 L32.7868652,34.1540527 L32.7868652,34.1540527 Z" id="形状" fill="#444444" fill-rule="nonzero"></path>
                        <path d="M19.0056152,12.0603027 L6.97436523,12.0603027 C6.36186523,12.0603027 5.88061523,12.5415527 5.88061523,13.1540527 C5.88061523,13.7665527 6.36186523,14.2478027 6.97436523,14.2478027 L19.0056152,14.2478027 C19.6181152,14.2478027 20.0993652,13.7665527 20.0993652,13.1540527 C20.0993652,12.5415527 19.6181152,12.0603027 19.0056152,12.0603027 Z M19.0056152,20.1540527 L6.97436523,20.1540527 C6.36186523,20.1540527 5.88061523,20.6353027 5.88061523,21.2478027 C5.88061523,21.8603027 6.36186523,22.3415527 6.97436523,22.3415527 L19.0056152,22.3415527 C19.6181152,22.3415527 20.0993652,21.8603027 20.0993652,21.2478027 C20.0993652,20.6353027 19.6181152,20.1540527 19.0056152,20.1540527 Z" id="形状" fill="#444444" fill-rule="nonzero"></path>
                    </g>
                </g>
            </g>
        </g>
    </g>
</svg>