<?xml version="1.0" encoding="UTF-8"?>
<svg width="92px" height="92px" viewBox="0 0 92 92" version="1.1" xmlns="http://www.w3.org/2000/svg" xmlns:xlink="http://www.w3.org/1999/xlink">
    <title>委办局</title>
    <defs>
        <path d="M51,2.88675135 L80.8371686,20.1132487 C83.9311793,21.8995766 85.8371686,25.2008468 85.8371686,28.7735027 L85.8371686,63.2264973 C85.8371686,66.7991532 83.9311793,70.1004234 80.8371686,71.8867513 L51,89.1132487 C47.9059892,90.8995766 44.0940108,90.8995766 41,89.1132487 L11.1628314,71.8867513 C8.06882066,70.1004234 6.16283143,66.7991532 6.16283143,63.2264973 L6.16283143,28.7735027 C6.16283143,25.2008468 8.06882066,21.8995766 11.1628314,20.1132487 L41,2.88675135 C44.0940108,1.1004234 47.9059892,1.1004234 51,2.88675135 Z" id="path-1"></path>
        <filter x="0.2%" y="-4.8%" width="99.6%" height="109.7%" filterUnits="objectBoundingBox" id="filter-2">
            <feMorphology radius="6" operator="erode" in="SourceAlpha" result="shadowSpreadInner1"></feMorphology>
            <feGaussianBlur stdDeviation="3" in="shadowSpreadInner1" result="shadowBlurInner1"></feGaussianBlur>
            <feOffset dx="0" dy="0" in="shadowBlurInner1" result="shadowOffsetInner1"></feOffset>
            <feComposite in="shadowOffsetInner1" in2="SourceAlpha" operator="arithmetic" k2="-1" k3="1" result="shadowInnerInner1"></feComposite>
            <feColorMatrix values="0 0 0 0 0.439215686   0 0 0 0 0.474509804   0 0 0 0 0.964705882  0 0 0 1 0" type="matrix" in="shadowInnerInner1"></feColorMatrix>
        </filter>
        <filter id="filter-3">
            <feColorMatrix in="SourceGraphic" type="matrix" values="0 0 0 0 0.439216 0 0 0 0 0.474510 0 0 0 0 0.964706 0 0 0 1.000000 0"></feColorMatrix>
        </filter>
    </defs>
    <g id="页面-1" stroke="none" stroke-width="1" fill="none" fill-rule="evenodd">
        <g id="数据汇聚情况" transform="translate(-612.000000, -162.000000)">
            <g id="委办局" transform="translate(612.000000, 162.000000)">
                <g id="多边形">
                    <use fill="black" fill-opacity="1" filter="url(#filter-2)" xlink:href="#path-1"></use>
                    <path stroke="#7079F6" stroke-width="1" d="M46,2.04700538 C47.6401724,2.04700538 49.2803449,2.47125827 50.75,3.31976405 L50.75,3.31976405 L80.5871686,20.5462614 C82.0568237,21.3947671 83.2443237,22.6030717 84.0644099,24.0235027 C84.8844961,25.4439337 85.3371686,27.0764911 85.3371686,28.7735027 L85.3371686,28.7735027 L85.3371686,63.2264973 C85.3371686,66.6205204 83.5264788,69.7567271 80.5871686,71.4537386 L80.5871686,71.4537386 L50.75,88.680236 C49.2803449,89.5287417 47.6401724,89.9529946 46,89.9529946 C44.3598276,89.9529946 42.7196551,89.5287417 41.25,88.680236 L41.25,88.680236 L11.4128314,71.4537386 C8.4735212,69.7567271 6.66283143,66.6205204 6.66283143,63.2264973 L6.66283143,63.2264973 L6.66283143,28.7735027 C6.66283143,25.3794796 8.4735212,22.2432729 11.4128314,20.5462614 L11.4128314,20.5462614 L41.25,3.31976405 C42.7196551,2.47125827 44.3598276,2.04700538 46,2.04700538 Z" stroke-linejoin="square"></path>
                </g>
                <g filter="url(#filter-3)" id="编组">
                    <g transform="translate(29.000000, 29.000000)">
                        <path d="M34.8470852,18.3445723 L34.8213689,16.6215745 C34.7956525,15.7729338 34.4613395,14.9757259 33.8441462,14.384249 C33.226953,13.7927721 32.4297451,13.4841755 31.5811043,13.4841755 L30.7324636,13.5098919 C30.4495834,12.5841021 30.0638376,11.6840286 29.6009427,10.8611043 L30.3210015,10.1924782 C30.9381947,9.62671777 31.2982241,8.82950985 31.3496569,7.98086912 C31.3753733,7.13222843 31.092493,6.30930409 30.5010162,5.69211087 L29.3180625,4.40629161 C28.1351088,3.12047234 26.1035143,3.04332321 24.8176951,4.22627693 L23.8404724,5.1263504 C23.0432645,4.68917186 22.2203402,4.32914248 21.3459831,4.04626223 L21.3459831,3.19762153 C21.3459831,1.44890734 19.9058655,0.00878978516 18.1571514,0.00878978516 L16.4598699,0.00878978516 C14.7111557,0.00878978516 13.2710382,1.44890734 13.2710382,3.19762153 L13.2710382,3.86624752 C12.3452484,4.12341139 11.4451749,4.45772438 10.5708178,4.89490292 L9.97934092,4.32914245 C9.36214768,3.76338197 8.53922337,3.45478537 7.69058268,3.48050175 C6.84194198,3.50621814 6.04473403,3.86624752 5.47897355,4.50915715 L4.29601983,5.79497642 C3.11306611,7.08079569 3.19021527,9.1123901 4.47603454,10.2953438 L4.63033283,10.4239257 C4.03885597,11.4268647 3.57596104,12.4812365 3.24164805,13.6127574 C2.39300735,13.6127574 1.5957994,13.921354 0.978606187,14.5128309 C0.361412939,15.1043078 0.0270999121,15.9015157 0.00138352539,16.7501564 L0.00138352539,18.4474378 C-0.0243328613,19.2960785 0.309980132,20.0932865 0.901457026,20.7104797 C1.49293389,21.327673 2.29014181,21.661986 3.1387825,21.6877024 L3.21593166,21.6877024 C3.52452827,22.7677905 3.96170684,23.7964459 4.50175093,24.7736686 L4.32173622,24.9793996 C3.75597575,25.5965929 3.44737914,26.4195172 3.47309553,27.2681579 C3.49881191,28.1167986 3.85884129,28.9140065 4.50175093,29.479767 L5.78757016,30.6627207 C6.40476341,31.2284812 7.17625494,31.5113614 7.94774651,31.5113614 C8.7963872,31.5113614 9.67074432,31.1770484 10.2879375,30.482706 L10.3393703,30.4312733 C11.3165929,30.945601 12.3195319,31.3313467 13.3739037,31.6142269 L13.3739037,31.6913761 C13.3739037,33.4400903 14.8140213,34.8802079 16.5627355,34.8802079 L18.2857333,34.8802079 C20.0344475,34.8802079 21.474565,33.4400903 21.474565,31.6913761 L21.474565,31.3827795 C22.477504,31.0484665 23.4290103,30.6370043 24.3548001,30.0969602 L24.611964,30.3798405 C25.1777245,30.9970337 25.9749324,31.3570631 26.8235731,31.4084959 C27.6722138,31.4342123 28.4951381,31.151332 29.1123314,30.5598552 L30.3981506,29.3769015 C31.0153439,28.811141 31.3753732,28.0139331 31.426806,27.1652923 C31.4525224,26.3166517 31.1696421,25.4937273 30.5781653,24.8765341 L29.9095393,24.1564753 C30.3210015,23.333551 30.6553145,22.4849103 30.8867619,21.6105532 L31.761119,21.5848368 C33.4841168,21.5591204 34.898518,20.0932865 34.8470852,18.3445723 Z M32.2754467,19.0131983 C32.1211484,19.1674966 31.889701,19.2446458 31.6839699,19.2446458 L29.9352557,19.2703621 C29.3952116,19.2703621 28.9323167,19.6561079 28.8294511,20.196152 C28.5722873,21.4305385 28.1093923,22.6392086 27.4664827,23.7192968 C27.2093189,24.1564753 27.2607516,24.7222358 27.620781,25.0822652 L28.8551675,26.4195172 C29.0094658,26.5995319 29.086615,26.805263 29.086615,27.0367104 C29.086615,27.2681579 28.9837494,27.473889 28.8037348,27.6281873 L27.5179155,28.811141 C27.3379008,28.9654393 27.1321697,29.0425885 26.9007223,29.0425884 C26.6692748,29.0425884 26.4635437,28.9397229 26.3092454,28.7597082 L25.3834555,27.7567692 C24.9977098,27.3195907 24.3548001,27.2681579 23.8661888,27.6024709 C22.6832351,28.4253952 21.3974159,29.0168721 20.0087311,29.3511851 C19.4944034,29.479767 19.134374,29.9426619 19.134374,30.482706 L19.134374,31.6656597 C19.134374,32.154271 18.7486282,32.5400168 18.2600169,32.5400168 L16.5370191,32.5400168 C16.0484078,32.5400168 15.662662,32.1542711 15.662662,31.6656597 L15.662662,30.6627207 C15.662662,30.0969602 15.2769162,29.6340653 14.7111558,29.5311998 C13.2710382,29.2483195 11.9337862,28.7339918 10.6736833,27.9625003 C10.2107884,27.6796201 9.59359516,27.7567692 9.20784939,28.1682314 L8.53922337,28.8882902 C8.20491038,29.2483195 7.66486629,29.2483195 7.33055326,28.9397229 L6.04473403,27.7567692 C5.86471932,27.6024709 5.78757016,27.3967398 5.76185377,27.1652923 C5.76185377,26.9338449 5.83900293,26.7023974 5.99330125,26.5480991 L6.76479279,25.6994584 C7.12482217,25.3137126 7.17625494,24.7222358 6.89337472,24.2850572 C6.0961668,23.0506707 5.53040633,21.7134187 5.22180969,20.2990175 C5.11894414,19.7846898 4.65604921,19.3989441 4.11600513,19.3989441 L3.1387825,19.3732277 C2.65017119,19.3732277 2.29014181,18.9617655 2.29014181,18.4988706 L2.31585819,16.7758728 C2.31585819,16.5444253 2.39300735,16.3386943 2.54730567,16.1843959 C2.72732038,16.0043812 2.93305144,15.9272321 3.19021527,15.9272321 L4.09028877,15.9529485 C4.63033286,15.9529485 5.11894417,15.5929191 5.24752607,15.052875 C5.58183907,13.5613247 6.19903231,12.1726399 7.07338943,10.912537 C7.40770242,10.4496421 7.3305533,9.78101609 6.89337472,9.39527032 L6.01901764,8.59806237 C5.65898826,8.26374938 5.65898826,7.72370529 5.96758487,7.38939229 L7.15053859,6.10357303 C7.30483691,5.92355832 7.51056797,5.84640916 7.74201542,5.82069281 C7.9734629,5.82069281 8.20491034,5.89784197 8.35920866,6.05214025 L9.56787877,7.15794481 C9.95362454,7.49225781 10.4936686,7.56940697 10.9308472,7.31224313 C12.0880845,6.64361711 13.322471,6.18072219 14.6082902,5.92355832 C15.1483343,5.82069277 15.5340801,5.33208146 15.5340801,4.79203741 L15.5340801,3.19762153 C15.5340801,2.70901022 15.9198258,2.32326442 16.4084372,2.32326442 L18.131435,2.32326442 C18.6200463,2.32326442 19.005792,2.70901019 19.0057921,3.19762153 L19.0057921,4.92061931 C19.0057921,5.46066339 19.3658215,5.92355832 19.8801492,6.05214025 C21.1145357,6.36073686 22.271773,6.84934817 23.3518611,7.54369058 C23.7890397,7.8265708 24.3805165,7.77513806 24.7662623,7.41510865 L26.3863946,5.92355832 C26.7464239,5.58924533 27.286468,5.61496171 27.5950647,5.97499109 L28.7780184,7.26081036 C28.9323167,7.44082507 29.0094659,7.64655613 29.0094658,7.87800361 C29.0094658,8.10945109 28.9066003,8.31518215 28.7265856,8.46948043 L27.3121844,9.78101609 C26.9007223,10.1667619 26.8235731,10.7839551 27.1321697,11.24685 C27.8522285,12.378371 28.3922726,13.6384738 28.7008692,14.9500095 C28.8294512,15.4900536 29.2923461,15.8500829 29.8581065,15.8500829 L31.6068207,15.8243666 C31.8382682,15.8243666 32.0439993,15.9015157 32.224014,16.055814 C32.3783123,16.2101124 32.4811778,16.4415598 32.4811778,16.6730073 L32.5068942,18.3960051 C32.5326106,18.6274525 32.4554614,18.8589 32.2754467,19.0131983 L32.2754467,19.0131983 Z" id="形状" fill="#000000" fill-rule="nonzero"></path>
                        <path d="M17.4113762,12.5069529 C14.6340066,12.5069529 12.3709647,14.7699948 12.3709647,17.5473644 C12.3709647,20.3247339 14.6340066,22.5877758 17.4113762,22.5877758 C20.1887458,22.5877758 22.4517877,20.3247339 22.4517877,17.5473644 C22.4517877,14.7699948 20.1887458,12.5069529 17.4113762,12.5069529 L17.4113762,12.5069529 Z M17.4113762,20.2733012 C15.8941095,20.2733012 14.6854394,19.0389147 14.6854394,17.5473644 C14.6854394,16.0300977 15.9198259,14.8214275 17.4113762,14.8214275 C18.9286429,14.8214275 20.137313,16.055814 20.137313,17.5473644 C20.137313,19.0389147 18.9286429,20.2733012 17.4113762,20.2733012 Z" id="形状" fill="#000000" fill-rule="nonzero"></path>
                    </g>
                </g>
            </g>
        </g>
    </g>
</svg>