<?xml version="1.0" encoding="UTF-8"?>
<svg width="92px" height="92px" viewBox="0 0 92 92" version="1.1" xmlns="http://www.w3.org/2000/svg" xmlns:xlink="http://www.w3.org/1999/xlink">
    <title>表数</title>
    <defs>
        <path d="M51,2.88675135 L80.8371686,20.1132487 C83.9311793,21.8995766 85.8371686,25.2008468 85.8371686,28.7735027 L85.8371686,63.2264973 C85.8371686,66.7991532 83.9311793,70.1004234 80.8371686,71.8867513 L51,89.1132487 C47.9059892,90.8995766 44.0940108,90.8995766 41,89.1132487 L11.1628314,71.8867513 C8.06882066,70.1004234 6.16283143,66.7991532 6.16283143,63.2264973 L6.16283143,28.7735027 C6.16283143,25.2008468 8.06882066,21.8995766 11.1628314,20.1132487 L41,2.88675135 C44.0940108,1.1004234 47.9059892,1.1004234 51,2.88675135 Z" id="path-1"></path>
        <filter x="0.2%" y="-4.8%" width="99.6%" height="109.7%" filterUnits="objectBoundingBox" id="filter-2">
            <feMorphology radius="6" operator="erode" in="SourceAlpha" result="shadowSpreadInner1"></feMorphology>
            <feGaussianBlur stdDeviation="3" in="shadowSpreadInner1" result="shadowBlurInner1"></feGaussianBlur>
            <feOffset dx="0" dy="0" in="shadowBlurInner1" result="shadowOffsetInner1"></feOffset>
            <feComposite in="shadowOffsetInner1" in2="SourceAlpha" operator="arithmetic" k2="-1" k3="1" result="shadowInnerInner1"></feComposite>
            <feColorMatrix values="0 0 0 0 0   0 0 0 0 0.768627451   0 0 0 0 1  0 0 0 1 0" type="matrix" in="shadowInnerInner1"></feColorMatrix>
        </filter>
        <filter id="filter-3">
            <feColorMatrix in="SourceGraphic" type="matrix" values="0 0 0 0 0.000000 0 0 0 0 0.768627 0 0 0 0 1.000000 0 0 0 1.000000 0"></feColorMatrix>
        </filter>
    </defs>
    <g id="页面-1" stroke="none" stroke-width="1" fill="none" fill-rule="evenodd">
        <g id="数据汇聚情况" transform="translate(-1124.000000, -162.000000)">
            <g id="表数" transform="translate(1124.000000, 162.000000)">
                <g id="多边形">
                    <use fill="black" fill-opacity="1" filter="url(#filter-2)" xlink:href="#path-1"></use>
                    <path stroke="#00C4FF" stroke-width="1" d="M46,2.04700538 C47.6401724,2.04700538 49.2803449,2.47125827 50.75,3.31976405 L50.75,3.31976405 L80.5871686,20.5462614 C82.0568237,21.3947671 83.2443237,22.6030717 84.0644099,24.0235027 C84.8844961,25.4439337 85.3371686,27.0764911 85.3371686,28.7735027 L85.3371686,28.7735027 L85.3371686,63.2264973 C85.3371686,66.6205204 83.5264788,69.7567271 80.5871686,71.4537386 L80.5871686,71.4537386 L50.75,88.680236 C49.2803449,89.5287417 47.6401724,89.9529946 46,89.9529946 C44.3598276,89.9529946 42.7196551,89.5287417 41.25,88.680236 L41.25,88.680236 L11.4128314,71.4537386 C8.4735212,69.7567271 6.66283143,66.6205204 6.66283143,63.2264973 L6.66283143,63.2264973 L6.66283143,28.7735027 C6.66283143,25.3794796 8.4735212,22.2432729 11.4128314,20.5462614 L11.4128314,20.5462614 L41.25,3.31976405 C42.7196551,2.47125827 44.3598276,2.04700538 46,2.04700538 Z" stroke-linejoin="square"></path>
                </g>
                <g filter="url(#filter-3)" id="表单管理">
                    <g transform="translate(29.000000, 30.000000)">
                        <path d="M9.42307692,18.8461538 L20.1923077,18.8461538 C20.9461538,18.8461538 21.5384615,18.2538462 21.5384615,17.5 C21.5384615,16.7461538 20.9461538,16.1538462 20.1923077,16.1538462 L9.42307692,16.1538462 C8.66923077,16.1538462 8.07692308,16.7461538 8.07692308,17.5 C8.07692308,18.2538462 8.66923077,18.8461538 9.42307692,18.8461538 Z M29.6153846,0 L5.38461538,0 C2.42307692,0 0,2.42307692 0,5.38461538 L0,29.6153846 C0,32.5769231 2.42307692,35 5.38461538,35 L29.6153846,35 C32.5769231,35 35,32.5769231 35,29.6153846 L35,5.38461538 C35,2.42307692 32.5769231,0 29.6153846,0 Z M32.3076923,29.6153846 C32.3076923,31.0961538 31.0961538,32.3076923 29.6153846,32.3076923 L5.38461538,32.3076923 C3.90384615,32.3076923 2.69230769,31.0961538 2.69230769,29.6153846 L2.69230769,5.38461538 C2.69230769,3.90384615 3.90384615,2.69230769 5.38461538,2.69230769 L29.6153846,2.69230769 C31.0961538,2.69230769 32.3076923,3.90384615 32.3076923,5.38461538 L32.3076923,29.6153846 Z M25.5769231,8.07692308 L9.42307692,8.07692308 C8.66923077,8.07692308 8.07692308,8.66923077 8.07692308,9.42307692 C8.07692308,10.1769231 8.66923077,10.7692308 9.42307692,10.7692308 L25.5769231,10.7692308 C26.3307692,10.7692308 26.9230769,10.1769231 26.9230769,9.42307692 C26.9230769,8.66923077 26.3307692,8.07692308 25.5769231,8.07692308 Z M22.8846154,24.2307692 L9.42307692,24.2307692 C8.66923077,24.2307692 8.07692308,24.8230769 8.07692308,25.5769231 C8.07692308,26.3307692 8.66923077,26.9230769 9.42307692,26.9230769 L22.8846154,26.9230769 C23.6384615,26.9230769 24.2307692,26.3307692 24.2307692,25.5769231 C24.2307692,24.8230769 23.6384615,24.2307692 22.8846154,24.2307692 Z" id="形状" fill="#000000" fill-rule="nonzero"></path>
                    </g>
                </g>
            </g>
        </g>
    </g>
</svg>