<?xml version="1.0" encoding="UTF-8"?>
<svg width="92px" height="92px" viewBox="0 0 92 92" version="1.1" xmlns="http://www.w3.org/2000/svg" xmlns:xlink="http://www.w3.org/1999/xlink">
    <title>任务数</title>
    <defs>
        <path d="M51,2.88675135 L80.8371686,20.1132487 C83.9311793,21.8995766 85.8371686,25.2008468 85.8371686,28.7735027 L85.8371686,63.2264973 C85.8371686,66.7991532 83.9311793,70.1004234 80.8371686,71.8867513 L51,89.1132487 C47.9059892,90.8995766 44.0940108,90.8995766 41,89.1132487 L11.1628314,71.8867513 C8.06882066,70.1004234 6.16283143,66.7991532 6.16283143,63.2264973 L6.16283143,28.7735027 C6.16283143,25.2008468 8.06882066,21.8995766 11.1628314,20.1132487 L41,2.88675135 C44.0940108,1.1004234 47.9059892,1.1004234 51,2.88675135 Z" id="path-1"></path>
        <filter x="0.2%" y="-4.8%" width="99.6%" height="109.7%" filterUnits="objectBoundingBox" id="filter-2">
            <feMorphology radius="6" operator="erode" in="SourceAlpha" result="shadowSpreadInner1"></feMorphology>
            <feGaussianBlur stdDeviation="3" in="shadowSpreadInner1" result="shadowBlurInner1"></feGaussianBlur>
            <feOffset dx="0" dy="0" in="shadowBlurInner1" result="shadowOffsetInner1"></feOffset>
            <feComposite in="shadowOffsetInner1" in2="SourceAlpha" operator="arithmetic" k2="-1" k3="1" result="shadowInnerInner1"></feComposite>
            <feColorMatrix values="0 0 0 0 1   0 0 0 0 0.619607843   0 0 0 0 0.00392156863  0 0 0 0.5 0" type="matrix" in="shadowInnerInner1"></feColorMatrix>
        </filter>
        <filter id="filter-3">
            <feColorMatrix in="SourceGraphic" type="matrix" values="0 0 0 0 1.000000 0 0 0 0 0.619608 0 0 0 0 0.003922 0 0 0 1.000000 0"></feColorMatrix>
        </filter>
    </defs>
    <g id="页面-1" stroke="none" stroke-width="1" fill="none" fill-rule="evenodd">
        <g id="数据服务情况" transform="translate(-1101.000000, -163.000000)">
            <g id="任务数" transform="translate(1101.000000, 163.000000)">
                <g id="多边形">
                    <use fill="black" fill-opacity="1" filter="url(#filter-2)" xlink:href="#path-1"></use>
                    <path stroke="#FF9E01" stroke-width="1" d="M46,2.04700538 C47.6401724,2.04700538 49.2803449,2.47125827 50.75,3.31976405 L50.75,3.31976405 L80.5871686,20.5462614 C82.0568237,21.3947671 83.2443237,22.6030717 84.0644099,24.0235027 C84.8844961,25.4439337 85.3371686,27.0764911 85.3371686,28.7735027 L85.3371686,28.7735027 L85.3371686,63.2264973 C85.3371686,66.6205204 83.5264788,69.7567271 80.5871686,71.4537386 L80.5871686,71.4537386 L50.75,88.680236 C49.2803449,89.5287417 47.6401724,89.9529946 46,89.9529946 C44.3598276,89.9529946 42.7196551,89.5287417 41.25,88.680236 L41.25,88.680236 L11.4128314,71.4537386 C8.4735212,69.7567271 6.66283143,66.6205204 6.66283143,63.2264973 L6.66283143,63.2264973 L6.66283143,28.7735027 C6.66283143,25.3794796 8.4735212,22.2432729 11.4128314,20.5462614 L11.4128314,20.5462614 L41.25,3.31976405 C42.7196551,2.47125827 44.3598276,2.04700538 46,2.04700538 Z" stroke-linejoin="square"></path>
                </g>
                <g filter="url(#filter-3)" id="编组">
                    <g transform="translate(28.000000, 29.000000)">
                        <path d="M34.0425781,16.6167969 L18.2761719,16.6167969 L18.2761719,0.85 C18.2761719,0.629885497 18.188705,0.418792015 18.0330239,0.263184192 C17.8773429,0.10757637 17.6662082,0.0203124079 17.4460938,0.0203124079 C9.15747492,0.0254774274 2.0188783,5.86681271 0.373411989,13.9904615 C-1.27205432,22.1141103 3.03077309,30.2729359 10.6640625,33.503125 C16.0457902,35.7798651 22.2105068,35.2069222 27.0804876,31.9773982 C31.9504684,28.7478742 34.8770334,23.2919406 34.8738308,17.4484375 C34.874348,17.2277815 34.7869495,17.0160075 34.6309584,16.8599431 C34.4749672,16.7038786 34.2632344,16.6163807 34.0425781,16.6167969 L34.0425781,16.6167969 Z M31.9722656,23.5835937 C28.9420758,30.7711978 21.1137949,34.6651328 13.5534692,32.7454515 C5.99314343,30.8257702 0.970835492,23.668876 1.73671545,15.9063295 C2.50259541,8.14378287 8.82670024,2.10636538 16.6164063,1.70117188 L16.6164063,17.4464844 C16.6163026,17.6665989 16.7036701,17.8777335 16.8592779,18.0334146 C17.0148858,18.1890957 17.2259792,18.2765625 17.4460938,18.2765625 L33.1917969,18.2765625 C33.0994032,20.103163 32.6872983,21.8993956 31.9742187,23.5835937 L31.9722656,23.5835937 Z" id="形状" fill="#000000" fill-rule="nonzero"></path>
                        <path d="M20.2417969,15.4109375 L33.8035156,15.4109375 C34.0236301,15.4109375 34.2347236,15.3234707 34.3903314,15.1677896 C34.5459393,15.0121085 34.6332067,14.8009739 34.6332067,14.5808594 C34.6359002,10.763195 33.1205332,7.10111722 30.4210361,4.40162014 C27.721539,1.70212306 24.0594613,0.186756081 20.2417969,0.189449531 C19.7842729,0.190744962 19.4140624,0.562005494 19.4140624,1.01953125 L19.4140624,14.5808594 C19.4138458,15.0384739 19.7841835,15.4098603 20.2417969,15.4109375 Z M21.071875,1.875 C27.4492633,2.29263743 32.5292376,7.37261172 32.946875,13.75 L21.071875,13.75 L21.071875,1.875 Z" id="形状" fill="#000000" fill-rule="nonzero"></path>
                    </g>
                </g>
            </g>
        </g>
    </g>
</svg>