<?xml version="1.0" encoding="UTF-8"?>
<svg width="16px" height="22px" viewBox="0 0 16 22" version="1.1" xmlns="http://www.w3.org/2000/svg" xmlns:xlink="http://www.w3.org/1999/xlink">
    <!-- Generator: Sketch 54.1 (76490) - https://sketchapp.com -->
    <title>Group 125</title>
    <desc>Created with Sketch.</desc>
    <g id="Styles" stroke="none" stroke-width="1" fill="none" fill-rule="evenodd" opacity="0.65">
        <g id="UI-icons" transform="translate(-104.000000, -575.000000)">
            <g id="Group-125" transform="translate(100.000000, 574.000000)">
                <rect id="Rectangle-43-Copy-12" x="0" y="0" width="24" height="24"></rect>
                <g id="user" transform="translate(4.171875, 1.523438)" fill="#000000" fill-rule="nonzero">
                    <path d="M15.0328125,17.0859375 C14.6390625,16.1554688 14.0742188,15.31875 13.3570312,14.6015625 C12.6398437,13.884375 11.803125,13.3195313 10.8726562,12.9257813 C10.55625,12.7921875 10.2304687,12.6796875 9.90234375,12.5882813 C10.8304687,12.2742188 11.68125,11.7492188 12.39375,11.0367188 C13.6125,9.81796875 14.2851562,8.19609375 14.2851562,6.4734375 C14.2851562,4.75078125 13.6148437,3.12890625 12.39375,1.91015625 C11.175,0.69140625 9.553125,0.01875 7.83046875,0.01875 C6.1078125,0.01875 4.4859375,0.6890625 3.2671875,1.91015625 C2.0484375,3.12890625 1.37578125,4.75078125 1.37578125,6.4734375 C1.37578125,8.19609375 2.04609375,9.81796875 3.2671875,11.0367188 C3.9796875,11.7492187 4.83046875,12.2742188 5.75859375,12.5882813 C5.43046875,12.6796875 5.1046875,12.7898438 4.78828125,12.9257813 C3.8578125,13.3195313 3.02109375,13.884375 2.30390625,14.6015625 C1.58671875,15.31875 1.021875,16.1554688 0.628125,17.0859375 C0.2203125,18.0515625 0.0140625,19.0734375 0.0140625,20.1304688 C0.0140625,20.596875 0.39140625,20.9742188 0.8578125,20.9742188 C1.32421875,20.9742188 1.7015625,20.596875 1.7015625,20.1304688 C1.7015625,18.4921875 2.3390625,16.9523438 3.496875,15.7945313 C4.6546875,14.6367188 6.19453125,13.9992188 7.8328125,13.9992188 C9.47109375,13.9992188 11.0109375,14.6367188 12.16875,15.7945313 C13.3265625,16.9523438 13.9640625,18.4921875 13.9640625,20.1304688 C13.9640625,20.596875 14.3414062,20.9742188 14.8078125,20.9742188 C15.2742187,20.9742188 15.6515625,20.596875 15.6515625,20.1304688 C15.646875,19.0734375 15.440625,18.0515625 15.0328125,17.0859375 Z M3.0609375,6.4734375 C3.0609375,3.84375 5.20078125,1.70625 7.828125,1.70625 C10.4554687,1.70625 12.5953125,3.84375 12.5953125,6.4734375 C12.5953125,9.103125 10.4578125,11.240625 7.828125,11.240625 C5.1984375,11.240625 3.0609375,9.10078125 3.0609375,6.4734375 Z" id="Shape"></path>
                </g>
            </g>
        </g>
    </g>
</svg>